<svg xmlns="http://www.w3.org/2000/svg" viewBox="0 0 24 24" width="24" height="24">
  <path d="M11.5 22.5H7.249a1.5 1.5 0 0 1-1.5-1.5V3a1.5 1.5 0 0 1 1.5-1.5h8A1.5 1.5 0 0 1 16.75 3v5.52" fill="none" stroke="#070203" stroke-width="1" stroke-linecap="round"/>
  <path d="M11.25 3a.749.749 0 1 1-.53.22.751.751 0 0 1 .53-.22z" fill="#070203"/>
  <path d="M16.5 22.5a6 6 0 1 0-6-6 6 6 0 0 0 6 6z" fill="none" stroke="#070203" stroke-width="1"/>
  <path d="M13.05 16.039l2.45 2.667 4.45-4.83" fill="none" stroke="#070203" stroke-width="1" stroke-linecap="round" stroke-miterlimit="10"/>
</svg>
