<svg xmlns="http://www.w3.org/2000/svg" width="96" height="96" viewBox="0 0 96 96">
    <g fill="none" fill-rule="evenodd">
        <g fill="#000" fill-rule="nonzero">
            <g>
                <g>
                    <g>
                        <path d="M48 3c24.9 0 45 20.1 45 45 0 24.8-20.2 45-45 45C23.1 93 3 72.9 3 48S23.1 3 48 3zm0 8c-20.4 0-37 16.6-37 37s16.6 37 37 37 37-16.6 37-37c0-9.8-3.9-19.2-10.8-26.2C67.2 14.9 57.8 11 48 11zm0 52c2.761 0 5 2.239 5 5s-2.239 5-5 5-5-2.239-5-5 2.239-5 5-5zm12.6-34.6c3.3 5.7 2.3 12.9-2.3 17.5l-.158.15-.546.48c-.13.114-.263.237-.396.37l-.68.623-.351.33-.355.345c-.118.117-.236.237-.355.36l-.352.377C53.47 50.736 52 53.13 52 56.7V58h-8v-1.5c0-5.836 2.44-9.922 4.79-12.664l.37-.422.367-.4.36-.378.352-.357.342-.336.329-.316.753-.701.137-.126c.1-.1.2-.189.296-.27l.396-.33c.039-.033.075-.067.108-.1 2.1-2.1 2.5-5.3 1-7.8s-4.5-3.8-7.3-3c-2.8.8-4.8 3.3-4.8 6.3h-8c0-6.6 4.4-12.3 10.8-14 6.3-1.7 13 1.1 16.3 6.8z" transform="translate(-420 -724) translate(76 656) translate(328 68) translate(16)"/>
                    </g>
                </g>
            </g>
        </g>
    </g>
</svg>
