<?xml version="1.0" encoding="UTF-8"?>
<svg id="_레이어_2" data-name="레이어 2" xmlns="http://www.w3.org/2000/svg" viewBox="0 0 96 96">
  <defs>
    <style>
      .cls-1, .cls-2, .cls-3, .cls-4 {
        fill: none;
      }

      .cls-2 {
        stroke-width: 3px;
      }

      .cls-2, .cls-3 {
        stroke-linejoin: round;
      }

      .cls-2, .cls-3, .cls-4 {
        stroke: #000;
      }

      .cls-3 {
        stroke-width: 4px;
      }

      .cls-4 {
        stroke-miterlimit: 10;
      }
    </style>
  </defs>
  <g id="_레이어_1-2" data-name="레이어 1">
    <g id="camera_rear_galaxy_M1">
      <rect id="Image_container" data-name="Image container" class="cls-1" width="96" height="96"/>
      <g id="Icon">
        <path id="Path" d="M36,26.29c0,4.97-4.03,9-9,9s-9-4.03-9-9,4.03-9,9-9,9,4.03,9,9Z"/>
        <path id="Path-2" d="M36,47c0,4.97-4.03,9-9,9s-9-4.03-9-9,4.03-9,9-9h0c4.97,0,9,4.03,9,9Z"/>
        <path id="Path-3" d="M36,67.71c0,4.97-4.03,9-9,9s-9-4.03-9-9,4.03-9,9-9,9,4.03,9,9h0Z"/>
        <path id="Path-4" class="cls-3" d="M6,92V16c.02-5.52,4.48-9.98,10-10h76"/>
        <path id="Rectangle" class="cls-2" d="M27,13h0c7.18,0,13,5.82,13,13v42c0,7.18-5.82,13-13,13h0c-7.18,0-13-5.82-13-13V26c0-7.18,5.82-13,13-13Z"/>
        <path id="Path-5" class="cls-4" d="M49.4,38.7c1.33,0,2.4-1.07,2.4-2.4s-1.07-2.4-2.4-2.4-2.4,1.07-2.4,2.4c0,1.32,1.08,2.4,2.4,2.4Z"/>
      </g>
    </g>
  </g>
</svg>